<svg width="166" height="77" viewBox="0 0 166 77" fill="none" xmlns="http://www.w3.org/2000/svg">
<path d="M26.0816 14.7178C26.0724 10.3377 29.2242 7.09451 32.7722 7.1006C36.3263 7.1067 39.4963 10.3743 39.5039 14.7559L39.5176 22.1582C39.5184 22.5871 39.6896 22.9981 39.9934 23.3007C40.2972 23.6034 40.7088 23.773 41.1377 23.7722C41.5665 23.7714 41.9775 23.6002 42.2802 23.2964C42.5829 22.9926 42.7525 22.581 42.7516 22.1521L42.7379 14.7498C42.7242 8.91422 38.4218 3.88028 32.7783 3.86657C27.1286 3.8559 22.8384 8.88374 22.8475 14.7239L22.878 29.5285C22.8887 35.3672 27.1911 40.4011 32.8362 40.4102C33.0531 40.4183 33.2694 40.3826 33.4722 40.3052C33.6751 40.2279 33.8602 40.1104 34.0167 39.96C34.1732 39.8095 34.2977 39.6291 34.3829 39.4294C34.4681 39.2298 34.5123 39.015 34.5127 38.7979C34.5131 38.5808 34.4698 38.3659 34.3853 38.1659C34.3008 37.966 34.177 37.785 34.0211 37.634C33.8652 37.4829 33.6805 37.3648 33.4779 37.2867C33.2754 37.2086 33.0592 37.172 32.8423 37.1793C29.2897 37.1716 26.1182 33.9056 26.1105 29.524L26.0816 14.7178Z" fill="#344767"/>
<path opacity="0.5" d="M32.7004 25.1243C32.2713 25.1237 31.8596 25.2936 31.5558 25.5966C31.252 25.8995 31.0809 26.3108 31.0803 26.7398C31.0797 27.1689 31.2496 27.5806 31.5526 27.8844C31.8555 28.1883 32.2668 28.3593 32.6958 28.3599C36.2499 28.366 39.4184 31.632 39.4276 36.0152L39.4535 50.8214C39.4626 55.2015 36.3109 58.4447 32.7629 58.4386C29.2103 58.4309 26.0388 55.1649 26.0312 50.7833L26.0174 43.3809C26.0209 43.1663 25.9815 42.9532 25.9017 42.754C25.8218 42.5547 25.7031 42.3734 25.5524 42.2205C25.4018 42.0676 25.2222 41.9463 25.0241 41.8636C24.826 41.7809 24.6135 41.7384 24.3989 41.7387C24.1842 41.739 23.9718 41.7821 23.774 41.8654C23.5761 41.9486 23.3969 42.0705 23.2466 42.2238C23.0964 42.3771 22.9782 42.5587 22.8989 42.7582C22.8197 42.9577 22.7809 43.1709 22.7849 43.3855L22.7986 50.7878C22.8108 56.6249 27.1132 61.6589 32.7614 61.6711C38.4125 61.6833 42.7012 56.6539 42.6905 50.8153L42.6616 36.0091C42.6494 30.175 38.3455 25.1396 32.7034 25.1274L32.7004 25.1243Z" fill="#344767"/>
<path d="M60.1 43.1V44H53.8V60.5H52.9V44H46.6V43.1H60.1ZM65.147 59.6H74.927L68.777 45.11L62.237 60.5H61.277L68.777 42.8L76.277 60.5H65.147V59.6ZM79.6996 60.5V43.1H80.5996L90.3796 58.85V43.1H91.2796V60.5H90.3796L80.5996 44.72V60.5H79.6996ZM107.005 59.6V60.5H96.9848V43.1H97.8848V59.6H107.005ZM110.461 43.1H111.361V60.5H110.461V43.1ZM117.053 60.5V43.1H117.953L127.733 58.85V43.1H128.633V60.5H127.733L117.953 44.72V60.5H117.053ZM134.338 60.5V43.1H135.238V60.5H134.338ZM145.438 60.5L136.198 51.32L144.478 43.1H145.768L137.488 51.32L146.728 60.5H145.438ZM154.368 42.74C156.848 42.74 158.608 43.29 159.648 44.39L159.048 45.05C158.088 44.11 156.568 43.64 154.488 43.64C151.368 43.64 149.808 44.88 149.808 47.36C149.808 48.32 150.188 49.09 150.948 49.67C151.708 50.23 152.628 50.66 153.708 50.96C154.808 51.26 155.898 51.58 156.978 51.92C158.078 52.24 159.008 52.77 159.768 53.51C160.528 54.23 160.908 55.18 160.908 56.36C160.908 57.74 160.338 58.84 159.198 59.66C158.058 60.48 156.408 60.89 154.248 60.89C153.188 60.89 152.138 60.75 151.098 60.47C150.078 60.19 149.318 59.78 148.818 59.24L149.418 58.58C150.438 59.52 152.008 59.99 154.128 59.99C156.068 59.99 157.528 59.63 158.508 58.91C159.508 58.19 160.008 57.35 160.008 56.39C160.008 55.39 159.628 54.58 158.868 53.96C158.108 53.34 157.178 52.88 156.078 52.58C154.998 52.26 153.908 51.94 152.808 51.62C151.728 51.28 150.808 50.76 150.048 50.06C149.288 49.36 148.908 48.44 148.908 47.3C148.908 45.76 149.418 44.62 150.438 43.88C151.478 43.12 152.788 42.74 154.368 42.74Z" fill="#344767"/>
</svg>
